# This file uses centimeters as units for non-parametric coordinates.

g default
v -0.576060 -0.040900 0.094526
v -0.576060 0.034227 0.094526
v -0.576060 0.034227 -0.108379
v -0.576060 -0.040900 -0.108379
v -0.725078 -0.078893 0.070549
v -0.725078 -0.078893 0.164822
v -0.725078 0.078893 0.080016
v -0.725078 0.078893 0.155355
v -0.725078 -0.078893 -0.083481
v -0.725078 0.078893 -0.082714
v -0.725078 -0.078893 -0.151890
v -0.725078 0.078893 -0.152657
v -0.000138 0.034227 0.061732
v -0.000138 -0.040900 0.061732
v -0.000138 -0.040900 -0.075497
v -0.000138 0.034227 -0.075497
v -0.000138 0.000000 -0.088348
v -0.582440 0.000000 -0.133745
v -0.740685 0.000000 -0.203865
v -0.765838 0.000000 -0.056560
v -0.765838 0.000000 0.056560
v -0.723795 0.000000 0.196647
v -0.574941 0.000000 0.122641
v -0.000138 0.000000 0.073090
v -0.650569 0.072134 -0.044914
v -0.650569 0.072134 -0.137567
v -0.644453 0.000000 -0.202287
v -0.650569 -0.072134 -0.137183
v -0.650569 -0.072134 -0.045298
v -0.695115 0.000000 -0.032465
v -0.650569 0.072134 0.131802
v -0.650569 0.072134 0.036451
v -0.695115 0.000000 0.024095
v -0.650569 -0.072134 0.031717
v -0.650569 -0.072134 0.136535
v -0.640704 0.000000 0.196735
v -0.484711 0.034227 0.061732
v -0.483919 0.000000 0.076919
v -0.484711 -0.040900 0.061732
v -0.484711 -0.040900 -0.075497
v -0.489230 0.000000 -0.090500
v -0.484711 0.034227 -0.075497
v -0.601415 0.063807 -0.045061
v -0.601195 0.063908 0.025885
v -0.484711 0.047291 0.008277
v -0.484711 0.047276 -0.022291
v -0.615063 -0.064383 -0.022629
v -0.615199 -0.064443 0.008407
v -0.656818 0.000000 -0.001333
v -0.659904 0.000000 -0.013238
v -0.000138 -0.048537 -0.022292
v -0.000138 -0.048549 0.008276
v -0.484711 -0.048549 0.008276
v -0.484711 -0.048537 -0.022292
v -0.000138 0.047291 0.008277
v -0.000138 0.047276 -0.022291
v 0.575967 -0.040900 0.094526
v 0.575967 0.034227 0.094526
v 0.575967 0.034227 -0.108379
v 0.575967 -0.040900 -0.108379
v 0.725058 -0.078893 0.070549
v 0.725058 -0.078893 0.164822
v 0.725058 0.078893 0.080016
v 0.725058 0.078893 0.155355
v 0.725058 -0.078893 -0.083481
v 0.725058 0.078893 -0.082714
v 0.725058 -0.078893 -0.151890
v 0.725058 0.078893 -0.152657
v 0.582351 0.000000 -0.133745
v 0.750006 0.000000 -0.183675
v 0.765838 0.000000 -0.056560
v 0.765838 0.000000 0.056560
v 0.735871 0.000000 0.176314
v 0.574849 0.000000 0.122641
v 0.650513 0.072134 -0.044914
v 0.650513 0.072134 -0.137567
v 0.644394 0.000000 -0.202287
v 0.650513 -0.072134 -0.137183
v 0.650513 -0.072134 -0.045298
v 0.695081 0.000000 -0.032465
v 0.650513 0.072134 0.131802
v 0.650513 0.072134 0.036451
v 0.695081 0.000000 0.024095
v 0.650513 -0.072134 0.031717
v 0.650513 -0.072134 0.136535
v 0.640643 0.000000 0.196735
v 0.484542 0.034227 0.061732
v 0.483750 0.000000 0.076919
v 0.484542 -0.040900 0.061732
v 0.484542 -0.040900 -0.075497
v 0.489063 0.000000 -0.090500
v 0.484542 0.034227 -0.075497
v 0.601335 0.063807 -0.045061
v 0.601115 0.063908 0.025885
v 0.484542 0.047291 0.008277
v 0.484542 0.047276 -0.022291
v 0.614989 -0.064383 -0.022629
v 0.615126 -0.064443 0.008407
v 0.656765 0.000000 -0.001333
v 0.659853 0.000000 -0.013238
v 0.484542 -0.048549 0.008276
v 0.484542 -0.048537 -0.022292
vt 0.625000 0.000000
vt 0.625000 0.250000
vt 0.625000 0.500000
vt 0.875000 0.000000
vt 0.625000 0.000000
vt 0.750000 0.000000
vt 0.750000 0.250000
vt 0.625000 0.250000
vt 0.750000 0.250000
vt 0.750000 0.000000
vt 0.875000 0.000000
vt 0.875000 0.250000
vt 0.500000 0.250000
vt 0.500000 0.000000
vt 0.500000 0.750000
vt 0.500000 0.625000
vt 0.625000 0.625000
vt 0.875000 0.125000
vt 0.875000 0.125000
vt 0.750000 0.125000
vt 0.750000 0.125000
vt 0.750000 0.125000
vt 0.625000 0.125000
vt 0.625000 0.125000
vt 0.625000 0.125000
vt 0.500000 0.125000
vt 0.875000 0.250000
vt 0.875000 0.125000
vt 0.625000 0.250000
vt 0.625000 0.000000
vt 0.625000 0.125000
vt 0.562500 0.125000
vt 0.562500 0.000000
vt 0.562500 0.625000
vt 0.625000 0.353559
vt 0.619648 0.375000
vt 0.500000 0.398641
vt 0.623875 0.877250
vt 0.500000 0.898563
vt 0.625000 0.250000
vt 0.562500 0.351435
vt 0.625000 0.897059
vt 0.625000 1.000000
vt 0.562500 1.000000
vt 0.562500 0.500000
vt 0.625000 0.396645
vt 0.625000 0.750000
vt 0.625000 0.852930
vt 0.562500 0.851357
vt 0.625000 0.000000
vt 0.739226 0.000000
vt 0.750000 0.125000
vt 0.750000 0.000000
vt 0.750000 0.250000
vt 0.761024 0.000000
vt 0.750000 0.125000
vt 0.875000 0.000000
vt 0.750000 0.000000
vt 0.875000 0.250000
vt 0.761022 0.250000
vt 0.750000 0.125000
vt 0.750000 0.250000
vt 0.750000 0.125000
vt 0.739672 0.250000
vt 0.562500 0.250000
vt 0.500000 0.351435
vt 0.562500 0.898563
vt 0.500000 1.000000
vt 0.562500 0.750000
vt 0.500000 0.851357
vt 0.500000 0.500000
vt 0.562500 0.398641
vt 0.562500 0.000000
vt 0.625000 0.000000
vt 0.625000 0.125000
vt 0.562500 0.125000
vt 0.562500 0.625000
vt 0.625000 0.625000
vt 0.625000 0.750000
vt 0.562500 0.750000
vt 0.625000 0.000000
vt 0.750000 0.000000
vt 0.750000 0.125000
vt 0.625000 0.125000
vt 0.750000 0.125000
vt 0.875000 0.000000
vt 0.875000 0.125000
vt 0.625000 0.000000
vt 0.625000 0.125000
vt 0.875000 0.000000
vt 0.875000 0.125000
vt 0.875000 0.125000
vt 0.875000 0.000000
vt 0.562500 0.500000
vt 0.625000 0.500000
vt 0.875000 0.250000
vt 0.875000 0.250000
vt 0.750000 0.250000
vt 0.875000 0.250000
vt 0.625000 0.250000
vt 0.625000 0.250000
vt 0.625000 0.250000
vt 0.562500 0.250000
vt 0.750000 0.250000
vt 0.750000 0.000000
vt 0.750000 0.125000
vt 0.750000 0.250000
vt 0.625000 0.250000
vt 0.750000 0.250000
vt 0.750000 0.125000
vt 0.750000 0.125000
vt 0.750000 0.000000
vt 0.750000 0.000000
vt 0.625000 0.000000
vt 0.625000 0.125000
vt 0.500000 0.125000
vt 0.500000 0.250000
vt 0.500000 0.000000
vt 0.500000 0.625000
vt 0.500000 0.750000
vt 0.500000 0.500000
vt 0.761022 0.250000
vt 0.739672 0.250000
vt 0.750000 0.125000
vt 0.750000 0.125000
vt 0.625000 0.353559
vt 0.619648 0.375000
vt 0.562500 0.398641
vt 0.562500 0.351435
vt 0.500000 0.398641
vt 0.500000 0.351435
vt 0.623875 0.877250
vt 0.625000 0.897059
vt 0.562500 0.898563
vt 0.562500 0.851357
vt 0.739226 0.000000
vt 0.761024 0.000000
vt 0.500000 0.898563
vt 0.500000 0.851357
vt 0.625000 1.000000
vt 0.562500 1.000000
vt 0.625000 0.396645
vt 0.625000 0.852930
vt 0.500000 1.000000
vn 0.354336 -0.443945 0.823018
vn 0.354336 -0.443945 0.823018
vn 0.354336 -0.443945 0.823018
vn 0.354336 -0.443945 0.823018
vn 0.353374 -0.375719 -0.856716
vn 0.353374 -0.375719 -0.856716
vn 0.353374 -0.375719 -0.856716
vn 0.353374 -0.375719 -0.856716
vn -0.951156 -0.257267 0.170632
vn -0.951156 -0.257267 0.170632
vn -0.951156 -0.257267 0.170632
vn -0.951156 -0.257267 0.170632
vn -0.930570 -0.349665 -0.108510
vn -0.930570 -0.349665 -0.108510
vn -0.930570 -0.349665 -0.108510
vn -0.930570 -0.349665 -0.108510
vn 0.609244 -0.524134 0.595067
vn 0.609244 -0.524134 0.595067
vn 0.609244 -0.524134 0.595067
vn 0.609244 -0.524134 0.595067
vn 0.573462 -0.511095 -0.640252
vn 0.573463 -0.511095 -0.640252
vn 0.573462 -0.511095 -0.640252
vn 0.573462 -0.511095 -0.640252
vn 0.343162 0.435990 -0.831957
vn 0.343162 0.435990 -0.831957
vn 0.343162 0.435990 -0.831957
vn 0.343162 0.435990 -0.831957
vn 0.587526 0.522144 -0.618206
vn 0.587526 0.522144 -0.618206
vn 0.587526 0.522144 -0.618206
vn 0.587526 0.522144 -0.618206
vn -0.930686 0.349588 -0.107758
vn -0.930686 0.349588 -0.107758
vn -0.930686 0.349588 -0.107758
vn -0.930686 0.349588 -0.107758
vn -0.948213 0.258161 0.185053
vn -0.948213 0.258161 0.185053
vn -0.948213 0.258161 0.185053
vn -0.948213 0.258161 0.185053
vn 0.602758 0.559732 0.568668
vn 0.602758 0.559732 0.568668
vn 0.602758 0.559732 0.568668
vn 0.602758 0.559732 0.568668
vn 0.340278 0.509445 0.790365
vn 0.340278 0.509445 0.790365
vn 0.340278 0.509445 0.790365
vn 0.340278 0.509445 0.790365
vn 0.090334 0.995912 0.000000
vn 0.090334 0.995912 0.000000
vn 0.090334 0.995912 0.000000
vn 0.090334 0.995912 0.000000
vn 0.101159 0.601765 -0.792241
vn 0.101159 0.601765 -0.792241
vn 0.101159 0.601765 -0.792241
vn 0.101159 0.601765 -0.792241
vn 0.099272 -0.605745 -0.789441
vn 0.099272 -0.605745 -0.789441
vn 0.099272 -0.605745 -0.789441
vn 0.099272 -0.605745 -0.789441
vn 0.090334 -0.995912 0.000000
vn 0.090334 -0.995912 0.000000
vn 0.090334 -0.995912 0.000000
vn 0.090334 -0.995912 0.000000
vn -0.342158 -0.415148 0.842959
vn -0.342158 -0.415148 0.842959
vn -0.342158 -0.415148 0.842959
vn -0.342158 -0.415148 0.842959
vn -0.341553 0.409195 0.846109
vn -0.341553 0.409195 0.846109
vn -0.341553 0.409195 0.846109
vn -0.341553 0.409195 0.846109
vn 0.090334 0.995912 0.000000
vn 0.090334 0.995912 0.000000
vn 0.090334 0.995912 0.000000
vn 0.090334 0.995912 0.000000
vn -0.405173 0.421253 -0.811406
vn -0.405173 0.421253 -0.811406
vn -0.405173 0.421253 -0.811406
vn -0.405173 0.421253 -0.811406
vn -0.400159 -0.347378 -0.848057
vn -0.400159 -0.347378 -0.848057
vn -0.400159 -0.347378 -0.848057
vn -0.400159 -0.347378 -0.848057
vn 0.090334 -0.995912 0.000000
vn 0.090334 -0.995912 0.000000
vn 0.090334 -0.995912 0.000000
vn 0.090334 -0.995912 0.000000
vn 0.171883 -0.521820 0.835560
vn 0.171883 -0.521820 0.835560
vn 0.171883 -0.521820 0.835560
vn 0.171883 -0.521820 0.835560
vn 0.144476 0.576378 0.804311
vn 0.144476 0.576378 0.804311
vn 0.144476 0.576378 0.804311
vn 0.144476 0.576378 0.804311
vn 0.003686 0.361570 0.932338
vn 0.003686 0.361570 0.932338
vn 0.003686 0.361570 0.932338
vn 0.003686 0.361570 0.932338
vn 0.003760 -0.308689 0.951156
vn 0.003760 -0.308689 0.951156
vn 0.003760 -0.308689 0.951156
vn 0.003760 -0.308689 0.951156
vn 0.002093 -0.322237 -0.946657
vn 0.002093 -0.322237 -0.946657
vn 0.002093 -0.322237 -0.946657
vn 0.002093 -0.322237 -0.946657
vn 0.002048 0.376778 -0.926301
vn 0.002048 0.376778 -0.926301
vn 0.002048 0.376778 -0.926301
vn 0.002048 0.376778 -0.926301
vn -0.744873 0.666580 0.028899
vn -0.744873 0.666580 0.028899
vn -0.744873 0.666580 0.028899
vn -0.744873 0.666580 0.028899
vn 0.140769 0.990041 -0.001439
vn 0.140769 0.990041 -0.001439
vn 0.140769 0.990041 -0.001439
vn 0.140769 0.990041 -0.001439
vn -0.000000 1.000000 -0.000498
vn -0.000000 1.000000 -0.000498
vn -0.000000 1.000000 -0.000498
vn -0.000000 1.000000 -0.000498
vn 0.120793 -0.992677 -0.000906
vn 0.120793 -0.992677 -0.000906
vn 0.120793 -0.992677 -0.000906
vn 0.120793 -0.992677 -0.000906
vn -0.829091 -0.556286 0.056165
vn -0.829091 -0.556286 0.056165
vn -0.829091 -0.556286 0.056165
vn -0.829091 -0.556286 0.056165
vn 0.000000 -1.000000 -0.000411
vn 0.000000 -1.000000 -0.000411
vn 0.000000 -1.000000 -0.000411
vn 0.000000 -1.000000 -0.000411
vn 0.147994 0.942546 0.299509
vn 0.147994 0.942546 0.299509
vn 0.147994 0.942546 0.299509
vn 0.147994 0.942546 0.299509
vn 0.098285 -0.976712 0.190719
vn 0.098285 -0.976712 0.190719
vn 0.098285 -0.976712 0.190719
vn 0.098285 -0.976712 0.190719
vn 0.157173 0.938000 -0.308954
vn 0.157173 0.938000 -0.308954
vn 0.157173 0.938000 -0.308954
vn 0.157173 0.938000 -0.308954
vn 0.098437 -0.976624 -0.191094
vn 0.098437 -0.976623 -0.191094
vn 0.098437 -0.976623 -0.191093
vn 0.098437 -0.976623 -0.191093
vn 0.355815 -0.933604 0.042181
vn 0.355815 -0.933604 0.042181
vn 0.355815 -0.933604 0.042181
vn 0.355815 -0.933604 0.042181
vn -0.476291 -0.400025 -0.783024
vn -0.476290 -0.400025 -0.783024
vn -0.476291 -0.400025 -0.783024
vn -0.476291 -0.400025 -0.783024
vn 0.383104 0.917449 0.107329
vn 0.383104 0.917449 0.107329
vn 0.383104 0.917449 0.107329
vn 0.383104 0.917449 0.107329
vn -0.430418 -0.412520 0.802850
vn -0.430418 -0.412520 0.802850
vn -0.430418 -0.412520 0.802850
vn -0.430418 -0.412520 0.802850
vn 0.352755 -0.934580 -0.046097
vn 0.352755 -0.934580 -0.046097
vn 0.352755 -0.934580 -0.046097
vn 0.352755 -0.934580 -0.046097
vn 0.371356 0.921418 -0.114379
vn 0.371356 0.921418 -0.114379
vn 0.371356 0.921418 -0.114379
vn 0.371356 0.921418 -0.114379
vn -0.161676 0.414244 0.895691
vn -0.161676 0.414244 0.895691
vn -0.161676 0.414244 0.895691
vn -0.161676 0.414244 0.895691
vn -0.299127 0.462956 -0.834383
vn -0.299127 0.462956 -0.834383
vn -0.299127 0.462956 -0.834383
vn -0.299127 0.462957 -0.834383
vn 0.000000 0.971411 0.237404
vn 0.000000 0.971411 0.237404
vn 0.000000 0.971411 0.237404
vn 0.000000 0.971411 0.237404
vn 0.000000 -0.989916 0.141657
vn 0.000000 -0.989916 0.141657
vn 0.000000 -0.989916 0.141657
vn 0.000000 -0.989916 0.141657
vn 0.000000 -0.989855 -0.142083
vn 0.000000 -0.989855 -0.142083
vn 0.000000 -0.989855 -0.142083
vn 0.000000 -0.989855 -0.142083
vn -0.000000 0.971219 -0.238188
vn -0.000000 0.971219 -0.238188
vn -0.000000 0.971219 -0.238188
vn -0.000000 0.971219 -0.238188
vn -0.354077 -0.443989 0.823106
vn -0.354077 -0.443989 0.823106
vn -0.354077 -0.443989 0.823106
vn -0.354077 -0.443989 0.823106
vn -0.353114 -0.375772 -0.856800
vn -0.353114 -0.375772 -0.856800
vn -0.353114 -0.375772 -0.856800
vn -0.353114 -0.375772 -0.856800
vn 0.942777 -0.306182 0.132005
vn 0.942777 -0.306182 0.132005
vn 0.942777 -0.306182 0.132005
vn 0.942777 -0.306182 0.132005
vn 0.919730 -0.385423 -0.074475
vn 0.919730 -0.385423 -0.074475
vn 0.919730 -0.385423 -0.074475
vn 0.919730 -0.385423 -0.074475
vn -0.609058 -0.524229 0.595174
vn -0.609058 -0.524229 0.595174
vn -0.609058 -0.524229 0.595174
vn -0.609058 -0.524229 0.595174
vn -0.573275 -0.511177 -0.640354
vn -0.573275 -0.511177 -0.640354
vn -0.573275 -0.511177 -0.640354
vn -0.573275 -0.511177 -0.640354
vn -0.342907 0.436048 -0.832032
vn -0.342907 0.436048 -0.832032
vn -0.342907 0.436048 -0.832032
vn -0.342907 0.436048 -0.832032
vn -0.587339 0.522232 -0.618310
vn -0.587339 0.522232 -0.618310
vn -0.587339 0.522232 -0.618310
vn -0.587339 0.522232 -0.618310
vn 0.919776 0.385423 -0.073900
vn 0.919776 0.385423 -0.073900
vn 0.919776 0.385423 -0.073899
vn 0.919776 0.385423 -0.073899
vn 0.941168 0.305457 0.144568
vn 0.941168 0.305457 0.144568
vn 0.941168 0.305457 0.144568
vn 0.941168 0.305457 0.144568
vn -0.602571 0.559831 0.568768
vn -0.602571 0.559831 0.568768
vn -0.602571 0.559831 0.568768
vn -0.602571 0.559831 0.568768
vn -0.340026 0.509492 0.790443
vn -0.340026 0.509492 0.790443
vn -0.340026 0.509492 0.790443
vn -0.340026 0.509492 0.790443
vn -0.090290 0.995915 0.000000
vn -0.090290 0.995916 0.000000
vn -0.090290 0.995916 0.000000
vn -0.090290 0.995916 0.000000
vn -0.003557 0.535082 -0.844793
vn -0.003557 0.535082 -0.844793
vn -0.003557 0.535082 -0.844793
vn -0.003557 0.535082 -0.844793
vn -0.002001 -0.539787 -0.841799
vn -0.002001 -0.539787 -0.841800
vn -0.002001 -0.539787 -0.841800
vn -0.002001 -0.539787 -0.841800
vn -0.090291 -0.995915 0.000000
vn -0.090291 -0.995916 0.000000
vn -0.090291 -0.995915 0.000000
vn -0.090291 -0.995915 0.000000
vn 0.342012 -0.415172 0.843007
vn 0.342012 -0.415172 0.843007
vn 0.342012 -0.415172 0.843007
vn 0.342012 -0.415172 0.843007
vn 0.341407 0.409218 0.846157
vn 0.341407 0.409218 0.846157
vn 0.341407 0.409218 0.846157
vn 0.341407 0.409218 0.846157
vn -0.090291 0.995915 0.000000
vn -0.090291 0.995915 0.000000
vn -0.090291 0.995916 0.000000
vn -0.090291 0.995916 0.000000
vn 0.405009 0.421287 -0.811471
vn 0.405009 0.421287 -0.811471
vn 0.405009 0.421287 -0.811471
vn 0.405009 0.421287 -0.811471
vn 0.399996 -0.347405 -0.848123
vn 0.399996 -0.347405 -0.848123
vn 0.399996 -0.347405 -0.848123
vn 0.399996 -0.347405 -0.848123
vn -0.090291 -0.995916 0.000000
vn -0.090291 -0.995916 0.000000
vn -0.090291 -0.995915 0.000000
vn -0.090291 -0.995916 0.000000
vn -0.058821 -0.427793 0.901961
vn -0.058821 -0.427793 0.901961
vn -0.058821 -0.427793 0.901961
vn -0.058821 -0.427793 0.901961
vn -0.035694 0.493880 0.868797
vn -0.035694 0.493880 0.868797
vn -0.035694 0.493880 0.868797
vn -0.035694 0.493880 0.868797
vn -0.003685 0.361570 0.932338
vn -0.003685 0.361570 0.932338
vn -0.003685 0.361570 0.932338
vn -0.003685 0.361570 0.932338
vn -0.003760 -0.308689 0.951156
vn -0.003760 -0.308689 0.951156
vn -0.003760 -0.308689 0.951156
vn -0.003760 -0.308689 0.951156
vn -0.002092 -0.322237 -0.946657
vn -0.002092 -0.322237 -0.946657
vn -0.002092 -0.322237 -0.946657
vn -0.002092 -0.322237 -0.946657
vn -0.002047 0.376778 -0.926301
vn -0.002047 0.376778 -0.926301
vn -0.002047 0.376778 -0.926301
vn -0.002047 0.376778 -0.926301
vn 0.744711 0.666760 0.028906
vn 0.744711 0.666760 0.028906
vn 0.744711 0.666760 0.028906
vn 0.744711 0.666760 0.028906
vn -0.140664 0.990056 -0.001439
vn -0.140664 0.990056 -0.001439
vn -0.140664 0.990056 -0.001439
vn -0.140664 0.990056 -0.001439
vn 0.000000 1.000000 -0.000498
vn 0.000000 1.000000 -0.000498
vn 0.000000 1.000000 -0.000498
vn 0.000000 1.000000 -0.000498
vn -0.120706 -0.992688 -0.000906
vn -0.120706 -0.992688 -0.000906
vn -0.120706 -0.992688 -0.000906
vn -0.120706 -0.992688 -0.000906
vn 0.828965 -0.556472 0.056184
vn 0.828965 -0.556472 0.056184
vn 0.828965 -0.556472 0.056184
vn 0.828965 -0.556472 0.056184
vn 0.000000 -1.000000 -0.000411
vn 0.000000 -1.000000 -0.000411
vn 0.000000 -1.000000 -0.000411
vn 0.000000 -1.000000 -0.000411
vn -0.147880 0.942559 0.299522
vn -0.147880 0.942559 0.299522
vn -0.147880 0.942559 0.299522
vn -0.147880 0.942559 0.299522
vn -0.098210 -0.976718 0.190728
vn -0.098210 -0.976718 0.190728
vn -0.098210 -0.976718 0.190728
vn -0.098210 -0.976718 0.190728
vn -0.157053 0.938015 -0.308969
vn -0.157053 0.938015 -0.308969
vn -0.157053 0.938015 -0.308969
vn -0.157053 0.938015 -0.308969
vn -0.098363 -0.976629 -0.191102
vn -0.098363 -0.976629 -0.191102
vn -0.098363 -0.976629 -0.191102
vn -0.098363 -0.976629 -0.191102
vn -0.355664 -0.933661 0.042184
vn -0.355664 -0.933661 0.042184
vn -0.355664 -0.933661 0.042184
vn -0.355664 -0.933661 0.042184
vn 0.476112 -0.400070 -0.783110
vn 0.476112 -0.400070 -0.783110
vn 0.476112 -0.400070 -0.783110
vn 0.476112 -0.400070 -0.783110
vn -0.382945 0.917514 0.107337
vn -0.382945 0.917514 0.107337
vn -0.382945 0.917514 0.107337
vn -0.382945 0.917514 0.107337
vn 0.430248 -0.412556 0.802922
vn 0.430248 -0.412556 0.802922
vn 0.430248 -0.412556 0.802922
vn 0.430248 -0.412556 0.802922
vn -0.352605 -0.934636 -0.046099
vn -0.352605 -0.934636 -0.046099
vn -0.352605 -0.934636 -0.046099
vn -0.352605 -0.934636 -0.046099
vn -0.371201 0.921480 -0.114387
vn -0.371201 0.921480 -0.114387
vn -0.371201 0.921480 -0.114387
vn -0.371201 0.921480 -0.114387
vn 0.161600 0.414248 0.895703
vn 0.161600 0.414248 0.895703
vn 0.161600 0.414248 0.895703
vn 0.161600 0.414248 0.895703
vn 0.298994 0.462977 -0.834419
vn 0.298994 0.462977 -0.834419
vn 0.298994 0.462977 -0.834419
vn 0.298994 0.462977 -0.834419
vn 0.000000 0.971411 0.237404
vn 0.000000 0.971411 0.237404
vn 0.000000 0.971411 0.237404
vn 0.000000 0.971411 0.237404
vn 0.000000 -0.989916 0.141657
vn 0.000000 -0.989916 0.141657
vn 0.000000 -0.989916 0.141657
vn 0.000000 -0.989916 0.141657
vn 0.000000 -0.989855 -0.142083
vn 0.000000 -0.989855 -0.142083
vn 0.000000 -0.989855 -0.142083
vn 0.000000 -0.989855 -0.142083
vn 0.000000 0.971219 -0.238188
vn 0.000000 0.971219 -0.238188
vn 0.000000 0.971219 -0.238188
vn 0.000000 0.971219 -0.238188
s off
g pCube28
f 39/33/1 38/32/2 23/25/3 1/50/4
f 41/34/5 40/69/6 4/47/7 18/17/8
f 6/1/9 22/24/10 21/21/11 5/10/12
f 20/20/13 19/19/14 11/11/15 9/10/16
f 23/25/17 36/31/18 35/30/19 1/50/20
f 4/4/21 28/57/22 27/28/23 18/18/24
f 42/45/25 41/34/26 18/17/27 3/3/28
f 27/28/29 26/27/30 3/59/31 18/18/32
f 10/9/33 12/12/34 19/19/35 20/20/36
f 22/24/37 8/2/38 7/9/39 21/21/40
f 2/40/41 31/29/42 36/31/43 23/25/44
f 38/32/45 37/65/46 2/40/47 23/25/48
f 26/27/49 12/12/50 10/9/51 25/62/52
f 19/19/53 12/12/54 26/27/55 27/28/56
f 28/57/57 11/11/58 19/19/59 27/28/60
f 29/58/61 9/10/62 11/11/63 28/57/64
f 30/56/65 20/20/66 9/10/67 29/58/68
f 25/62/69 10/9/70 20/20/71 30/56/72
f 32/54/73 7/7/74 8/8/75 31/29/76
f 21/22/77 7/7/78 32/54/79 33/63/80
f 34/53/81 5/6/82 21/22/83 33/63/84
f 35/30/85 6/5/86 5/6/87 34/53/88
f 36/31/89 22/23/90 6/5/91 35/30/92
f 31/29/93 8/8/94 22/23/95 36/31/96
f 24/26/97 13/13/98 37/65/99 38/32/100
f 14/14/101 24/26/102 38/32/103 39/33/104
f 17/16/105 15/15/106 40/69/107 41/34/108
f 16/71/109 17/16/110 41/34/111 42/45/112
f 43/60/113 50/61/114 49/52/115 44/64/116
f 44/35/117 45/41/118 46/72/119 43/36/120
f 45/41/121 55/66/122 56/37/123 46/72/124
f 47/38/125 54/49/126 53/67/127 48/42/128
f 48/51/129 49/52/130 50/61/131 47/55/132
f 52/39/133 53/67/134 54/49/135 51/70/136
f 37/65/137 45/41/138 44/35/139 2/40/140
f 53/67/141 39/44/142 1/43/143 48/42/144
f 42/45/145 3/3/146 43/46/147 46/72/148
f 40/69/149 54/49/150 47/48/151 4/47/152
f 1/50/153 35/30/154 34/53/155 48/51/156
f 48/51/157 34/53/158 33/63/159 49/52/160
f 44/64/161 32/54/162 31/29/163 2/40/164
f 50/61/165 30/56/166 29/58/167 47/55/168
f 47/55/169 29/58/170 28/57/171 4/4/172
f 3/59/173 26/27/174 25/62/175 43/60/176
f 43/60/177 25/62/178 30/56/179 50/61/180
f 33/63/181 32/54/182 44/64/183 49/52/184
f 13/13/185 55/66/186 45/41/187 37/65/188
f 52/39/189 14/68/190 39/44/191 53/67/192
f 15/15/193 51/70/194 54/49/195 40/69/196
f 16/71/197 42/45/198 46/72/199 56/37/200
f 89/73/201 57/74/202 74/75/203 88/76/204
f 91/77/205 69/78/206 60/79/207 90/80/208
f 62/81/209 61/82/210 72/83/211 73/84/212
f 71/85/213 65/82/214 67/86/215 70/87/216
f 74/75/217 57/74/218 85/88/219 86/89/220
f 60/90/221 69/91/222 77/92/223 78/93/224
f 92/94/225 59/95/226 69/78/227 91/77/228
f 77/92/229 69/91/230 59/96/231 76/97/232
f 66/98/233 71/85/234 70/87/235 68/99/236
f 73/84/237 72/83/238 63/98/239 64/100/240
f 58/101/241 74/75/242 86/89/243 81/102/244
f 88/76/245 74/75/246 58/101/247 87/103/248
f 76/97/249 75/104/250 66/98/251 68/99/252
f 70/87/253 77/92/254 76/97/255 68/99/256
f 78/93/257 77/92/258 70/87/259 67/86/260
f 79/105/261 78/93/262 67/86/263 65/82/264
f 80/106/265 79/105/266 65/82/267 71/85/268
f 75/104/269 80/106/270 71/85/271 66/98/272
f 82/107/273 81/102/274 64/108/275 63/109/276
f 72/110/277 83/111/278 82/107/279 63/109/280
f 84/112/281 83/111/282 72/110/283 61/113/284
f 85/88/285 84/112/286 61/113/287 62/114/288
f 86/89/289 85/88/290 62/114/291 73/115/292
f 81/102/293 86/89/294 73/115/295 64/108/296
f 24/116/297 88/76/298 87/103/299 13/117/300
f 14/118/301 89/73/302 88/76/303 24/116/304
f 17/119/305 91/77/306 90/80/307 15/120/308
f 16/121/309 92/94/310 91/77/311 17/119/312
f 93/122/313 94/123/314 99/124/315 100/125/316
f 94/126/317 93/127/318 96/128/319 95/129/320
f 95/129/321 96/128/322 56/130/323 55/131/324
f 97/132/325 98/133/326 101/134/327 102/135/328
f 98/136/329 97/137/330 100/125/331 99/124/332
f 52/138/333 51/139/334 102/135/335 101/134/336
f 87/103/337 58/101/338 94/126/339 95/129/340
f 101/134/341 98/133/342 57/140/343 89/141/344
f 92/94/345 96/128/346 93/142/347 59/95/348
f 90/80/349 60/79/350 97/143/351 102/135/352
f 57/74/353 98/136/354 84/112/355 85/88/356
f 98/136/357 99/124/358 83/111/359 84/112/360
f 94/123/361 58/101/362 81/102/363 82/107/364
f 100/125/365 97/137/366 79/105/367 80/106/368
f 97/137/369 60/90/370 78/93/371 79/105/372
f 59/96/373 93/122/374 75/104/375 76/97/376
f 93/122/377 100/125/378 80/106/379 75/104/380
f 83/111/381 99/124/382 94/123/383 82/107/384
f 13/117/385 87/103/386 95/129/387 55/131/388
f 52/138/389 101/134/390 89/141/391 14/144/392
f 15/120/393 90/80/394 102/135/395 51/139/396
f 16/121/397 56/130/398 96/128/399 92/94/400
