# This file uses centimeters as units for non-parametric coordinates.

g default
v -0.309006 0.186640 -0.180176
v -0.309662 -0.019111 -0.192383
v -0.312012 -0.000910 -0.017944
v -0.313095 0.204966 -0.026855
v -0.305145 -0.196775 -0.179321
v -0.310486 -0.198016 0.010498
v -0.316528 0.001200 0.194092
v -0.309540 0.206909 0.185669
v -0.321198 -0.179650 0.196533
v -0.292831 -0.224117 0.016235
v -0.303711 -0.218450 0.169312
v -0.283768 -0.230033 -0.157593
v -0.306427 -0.027219 -0.210327
v -0.290833 -0.187468 -0.202393
v -0.291504 0.188543 -0.209229
v 0.002441 -0.015306 -0.203613
v 0.024780 0.187262 -0.194580
v -0.010254 -0.207778 -0.210938
v 0.306061 -0.015718 -0.201904
v 0.294479 0.203932 -0.202271
v 0.271774 -0.211087 -0.207642
v 0.320084 -0.018739 -0.185181
v 0.309326 -0.198016 -0.192993
v 0.318970 0.203434 -0.178345
v 0.285675 0.222008 -0.188965
v 0.311356 0.223661 -0.168457
v 0.033707 0.218367 -0.182983
v -0.268753 0.210632 -0.195557
v -0.291458 0.221636 -0.169067
v -0.309784 0.233011 -0.031250
v -0.305145 0.228378 0.152344
v -0.294434 0.203394 0.197388
v -0.302551 -0.001117 0.207275
v -0.295471 -0.184614 0.210938
v -0.267792 -0.216672 0.196655
v -0.009796 -0.000248 0.201660
v -0.001358 0.204344 0.191528
v -0.270111 0.226351 0.181152
v -0.005585 0.219318 0.180420
v -0.017624 -0.206206 0.205811
v -0.020020 -0.223911 0.189209
v 0.297501 0.198181 0.192017
v 0.295685 -0.001448 0.207642
v 0.281982 -0.196362 0.206543
v 0.317108 -0.008273 0.193726
v 0.316406 0.189039 0.174561
v 0.279877 0.216465 0.182617
v 0.311188 0.221428 0.132690
v 0.315735 -0.199298 0.181152
v 0.315948 -0.000538 -0.008911
v 0.321198 0.210714 -0.003662
v 0.307007 0.223042 0.002075
v 0.319717 -0.201077 -0.014282
v 0.296417 -0.223621 -0.173096
v 0.257751 -0.231646 -0.194580
v 0.292206 -0.227054 -0.010132
v 0.291840 -0.224366 0.168457
v 0.257538 -0.223166 0.192017
v -0.013977 -0.233011 -0.187012
v -0.267426 -0.226641 -0.179565
v -0.026352 -0.232390 0.000488
v -0.005951 0.227964 0.007324
vt 0.603000 0.581000
vt 0.600600 0.561700
vt 0.617400 0.562100
vt 0.617600 0.581200
vt 0.600800 0.544900
vt 0.618800 0.543300
vt 0.637600 0.561300
vt 0.637800 0.581400
vt 0.636600 0.544000
vt 0.619000 0.540300
vt 0.633700 0.540100
vt 0.602300 0.541000
vt 0.598800 0.561200
vt 0.598200 0.545500
vt 0.600000 0.582600
vt 0.580400 0.610700
vt 0.579400 0.581200
vt 0.599300 0.613200
vt 0.562400 0.609300
vt 0.564100 0.582600
vt 0.579600 0.639700
vt 0.600300 0.639100
vt 0.561200 0.636000
vt 0.579300 0.641700
vt 0.561700 0.640000
vt 0.601500 0.642400
vt 0.602000 0.638300
vt 0.603300 0.640800
vt 0.602200 0.614400
vt 0.602000 0.585500
vt 0.604600 0.584000
vt 0.617400 0.583000
vt 0.634500 0.583100
vt 0.483900 0.580000
vt 0.483600 0.578000
vt 0.503200 0.578400
vt 0.503400 0.580100
vt 0.520600 0.581300
vt 0.520800 0.578600
vt 0.523600 0.584100
vt 0.525900 0.580600
vt 0.502500 0.607900
vt 0.483100 0.608100
vt 0.639400 0.583600
vt 0.637000 0.586200
vt 0.638600 0.612000
vt 0.636900 0.611500
vt 0.522000 0.607700
vt 0.524000 0.607600
vt 0.483000 0.636500
vt 0.502000 0.636800
vt 0.520400 0.636100
vt 0.502600 0.639100
vt 0.483700 0.639000
vt 0.638000 0.640900
vt 0.636500 0.638800
vt 0.631600 0.641400
vt 0.635800 0.643900
vt 0.521300 0.640000
vt 0.618000 0.661900
vt 0.618600 0.642000
vt 0.637300 0.662800
vt 0.619300 0.640600
vt 0.601200 0.663700
vt 0.617500 0.681000
vt 0.636000 0.680900
vt 0.600500 0.680800
vt 0.557700 0.638500
vt 0.559200 0.634600
vt 0.617800 0.684500
vt 0.602300 0.683600
vt 0.634900 0.684200
vt 0.523200 0.634000
vt 0.524900 0.637400
vt 0.559400 0.608900
vt 0.559600 0.584800
vt 0.599600 0.540700
vt 0.557400 0.583200
vt 0.541700 0.607400
vt 0.540700 0.581900
vt 0.542100 0.637800
vt 0.620500 0.611300
vn -0.999809 -0.000881 -0.019544
vn -0.999809 -0.000881 -0.019544
vn -0.999809 -0.000881 -0.019544
vn -0.999809 -0.000881 -0.019544
vn -0.999626 -0.018360 -0.020250
vn -0.999626 -0.018360 -0.020250
vn -0.999626 -0.018360 -0.020250
vn -0.999626 -0.018360 -0.020250
vn -0.999896 0.014245 -0.002400
vn -0.999896 0.014245 -0.002400
vn -0.999896 0.014245 -0.002400
vn -0.999896 0.014245 -0.002400
vn -0.999246 0.005165 -0.038492
vn -0.999246 0.005165 -0.038492
vn -0.999246 0.005165 -0.038492
vn -0.999246 0.005165 -0.038492
vn -0.882292 -0.470147 -0.022856
vn -0.882292 -0.470147 -0.022856
vn -0.882292 -0.470147 -0.022856
vn -0.882292 -0.470147 -0.022856
vn -0.829772 -0.557510 -0.025701
vn -0.829772 -0.557510 -0.025701
vn -0.829772 -0.557510 -0.025701
vn -0.829772 -0.557510 -0.025701
vn -0.915683 -0.078982 -0.394064
vn -0.915683 -0.078982 -0.394064
vn -0.915683 -0.078982 -0.394064
vn -0.915683 -0.078982 -0.394064
vn -0.911619 0.046585 -0.408388
vn -0.911619 0.046585 -0.408388
vn -0.911619 0.046585 -0.408388
vn -0.911619 0.046585 -0.408388
vn 0.033784 0.021191 -0.999205
vn 0.033784 0.021191 -0.999205
vn 0.033784 0.021191 -0.999204
vn 0.033784 0.021191 -0.999204
vn -0.003131 -0.001756 -0.999994
vn -0.003131 -0.001756 -0.999994
vn -0.003131 -0.001756 -0.999994
vn -0.003131 -0.001756 -0.999994
vn -0.011020 0.020802 -0.999723
vn -0.011020 0.020802 -0.999723
vn -0.011020 0.020802 -0.999723
vn -0.011020 0.020802 -0.999723
vn 0.008748 0.032599 -0.999430
vn 0.008748 0.032599 -0.999430
vn 0.008748 0.032599 -0.999430
vn 0.008748 0.032599 -0.999430
vn 0.523996 -0.032218 -0.851111
vn 0.523996 -0.032218 -0.851111
vn 0.523996 -0.032218 -0.851111
vn 0.523996 -0.032218 -0.851111
vn 0.726912 0.030933 -0.686034
vn 0.726912 0.030933 -0.686034
vn 0.726912 0.030933 -0.686034
vn 0.726912 0.030933 -0.686034
vn 0.525632 0.594041 -0.608955
vn 0.525632 0.594041 -0.608955
vn 0.525632 0.594041 -0.608955
vn 0.525632 0.594041 -0.608955
vn -0.040938 0.451436 -0.891364
vn -0.040938 0.451436 -0.891364
vn -0.040938 0.451436 -0.891364
vn -0.040938 0.451436 -0.891364
vn 0.035780 0.411337 -0.910781
vn 0.035780 0.411337 -0.910781
vn 0.035780 0.411337 -0.910781
vn 0.035780 0.411337 -0.910781
vn -0.575133 0.631663 -0.519831
vn -0.575133 0.631663 -0.519831
vn -0.575133 0.631663 -0.519831
vn -0.575133 0.631663 -0.519831
vn -0.940702 0.322469 -0.105324
vn -0.940702 0.322469 -0.105324
vn -0.940702 0.322469 -0.105324
vn -0.940702 0.322469 -0.105324
vn -0.985255 0.169733 0.021533
vn -0.985255 0.169733 0.021533
vn -0.985255 0.169733 0.021533
vn -0.985255 0.169733 0.021533
vn -0.642603 0.057766 0.764019
vn -0.642603 0.057766 0.764019
vn -0.642603 0.057766 0.764019
vn -0.642603 0.057766 0.764019
vn -0.569355 0.010003 0.822031
vn -0.569355 0.010003 0.822031
vn -0.569355 0.010003 0.822031
vn -0.569355 0.010003 0.822031
vn -0.450089 -0.647244 0.615220
vn -0.450089 -0.647244 0.615220
vn -0.450089 -0.647243 0.615220
vn -0.450089 -0.647244 0.615220
vn 0.019411 0.048084 0.998655
vn 0.019411 0.048084 0.998655
vn 0.019411 0.048084 0.998655
vn 0.019411 0.048084 0.998655
vn -0.330300 0.789902 0.516679
vn -0.330300 0.789902 0.516679
vn -0.330300 0.789901 0.516679
vn -0.330300 0.789902 0.516679
vn 0.015953 0.579121 0.815085
vn 0.015953 0.579121 0.815085
vn 0.015953 0.579121 0.815085
vn 0.015953 0.579121 0.815085
vn 0.019546 0.020015 0.999609
vn 0.019546 0.020015 0.999609
vn 0.019546 0.020015 0.999609
vn 0.019546 0.020015 0.999609
vn -0.008825 -0.530533 0.847618
vn -0.008825 -0.530533 0.847618
vn -0.008825 -0.530533 0.847618
vn -0.008825 -0.530533 0.847618
vn -0.009905 0.063838 0.997911
vn -0.009905 0.063838 0.997911
vn -0.009905 0.063838 0.997911
vn -0.009905 0.063838 0.997911
vn -0.011212 0.008214 0.999904
vn -0.011212 0.008214 0.999903
vn -0.011212 0.008214 0.999903
vn -0.011212 0.008214 0.999903
vn 0.628840 0.066136 0.774717
vn 0.628840 0.066136 0.774717
vn 0.628840 0.066136 0.774717
vn 0.628840 0.066136 0.774717
vn 0.004223 0.526864 0.849939
vn 0.004223 0.526864 0.849939
vn 0.004223 0.526864 0.849939
vn 0.004223 0.526864 0.849939
vn 0.604039 0.684783 0.407688
vn 0.604039 0.684783 0.407688
vn 0.604039 0.684783 0.407688
vn 0.604039 0.684783 0.407688
vn 0.573405 -0.051364 0.817661
vn 0.573405 -0.051364 0.817661
vn 0.573405 -0.051364 0.817661
vn 0.573405 -0.051364 0.817661
vn 0.999904 -0.010832 0.008698
vn 0.999904 -0.010832 0.008698
vn 0.999904 -0.010832 0.008698
vn 0.999904 -0.010832 0.008698
vn 0.906626 0.420603 0.033508
vn 0.906626 0.420603 0.033508
vn 0.906626 0.420603 0.033508
vn 0.906626 0.420603 0.033508
vn 0.999934 -0.009711 0.006140
vn 0.999934 -0.009711 0.006140
vn 0.999934 -0.009711 0.006140
vn 0.999934 -0.009711 0.006140
vn 0.999958 0.005789 0.007178
vn 0.999958 0.005789 0.007178
vn 0.999958 0.005789 0.007178
vn 0.999958 0.005789 0.007178
vn 0.999699 -0.017809 -0.016859
vn 0.999699 -0.017809 -0.016859
vn 0.999699 -0.017809 -0.016859
vn 0.999699 -0.017809 -0.016859
vn 0.829575 0.558367 -0.005676
vn 0.829574 0.558367 -0.005676
vn 0.829574 0.558367 -0.005676
vn 0.829574 0.558367 -0.005676
vn 0.459650 -0.677835 -0.573813
vn 0.459650 -0.677835 -0.573813
vn 0.459650 -0.677835 -0.573813
vn 0.459650 -0.677835 -0.573813
vn 0.780942 -0.624063 -0.025987
vn 0.780942 -0.624063 -0.025987
vn 0.780942 -0.624063 -0.025987
vn 0.780942 -0.624063 -0.025987
vn 0.703110 -0.710886 0.016666
vn 0.703110 -0.710886 0.016666
vn 0.703110 -0.710886 0.016666
vn 0.703110 -0.710886 0.016666
vn 0.395727 -0.688014 0.608306
vn 0.395727 -0.688014 0.608306
vn 0.395727 -0.688014 0.608306
vn 0.395727 -0.688014 0.608306
vn 0.005539 -0.575342 0.817894
vn 0.005539 -0.575342 0.817894
vn 0.005539 -0.575342 0.817894
vn 0.005539 -0.575342 0.817894
vn -0.026088 -0.994748 0.098971
vn -0.026088 -0.994748 0.098971
vn -0.026088 -0.994748 0.098971
vn 0.002133 -0.998542 0.053945
vn 0.002133 -0.998542 0.053945
vn 0.002133 -0.998542 0.053945
vn -0.008213 -0.626407 -0.779453
vn -0.008213 -0.626407 -0.779453
vn -0.008213 -0.626407 -0.779453
vn -0.008213 -0.626407 -0.779453
vn -0.053804 -0.597316 -0.800199
vn -0.053804 -0.597316 -0.800199
vn -0.053804 -0.597316 -0.800199
vn -0.053804 -0.597316 -0.800199
vn -0.523890 -0.657232 -0.541834
vn -0.523890 -0.657232 -0.541834
vn -0.523890 -0.657232 -0.541834
vn -0.523890 -0.657232 -0.541834
vn -0.029855 -0.984266 -0.174154
vn -0.029855 -0.984266 -0.174154
vn -0.029855 -0.984266 -0.174154
vn -0.019548 -0.999666 0.016923
vn -0.019548 -0.999666 0.016923
vn -0.019548 -0.999666 0.016923
vn -0.019548 -0.999666 0.016923
vn 0.013877 -0.944624 0.327863
vn 0.013877 -0.944623 0.327863
vn 0.013877 -0.944624 0.327863
vn 0.023443 -0.999701 -0.006914
vn 0.023443 -0.999701 -0.006914
vn 0.023443 -0.999701 -0.006914
vn 0.023443 -0.999701 -0.006914
vn 0.009244 -0.999500 0.030241
vn 0.009244 -0.999500 0.030241
vn 0.009244 -0.999500 0.030241
vn 0.009244 -0.999500 0.030241
vn -0.025243 -0.998840 0.041006
vn -0.025243 -0.998840 0.041006
vn -0.025243 -0.998840 0.041006
vn -0.025243 -0.998840 0.041006
vn 0.026661 0.998927 0.037881
vn 0.026661 0.998927 0.037881
vn 0.026661 0.998927 0.037881
vn 0.009135 0.994474 0.104584
vn 0.009135 0.994474 0.104584
vn 0.009135 0.994474 0.104584
vn -0.015861 0.998035 -0.060616
vn -0.015861 0.998035 -0.060616
vn -0.015861 0.998035 -0.060616
vn -0.007386 0.921210 -0.388997
vn -0.007386 0.921210 -0.388997
vn -0.007386 0.921210 -0.388997
vn 0.019280 0.999132 0.036925
vn 0.019280 0.999132 0.036925
vn 0.019280 0.999132 0.036925
vn 0.019280 0.999132 0.036925
vn 0.007296 0.999407 0.033652
vn 0.007296 0.999407 0.033652
vn 0.007296 0.999407 0.033652
vn 0.007296 0.999407 0.033652
vn -0.000238 0.999690 -0.024902
vn -0.000238 0.999690 -0.024902
vn -0.000238 0.999690 -0.024902
vn -0.000238 0.999690 -0.024902
vn 0.015588 0.998014 -0.061037
vn 0.015588 0.998014 -0.061037
vn 0.015588 0.998014 -0.061037
vn 0.015588 0.998014 -0.061037
s off
g block_03 group8
f 1/1/1 2/2/2 3/3/3 4/4/4
f 5/5/5 6/6/6 3/3/7 2/2/8
f 8/8/9 4/4/10 3/3/11 7/7/12
f 7/7/13 3/3/14 6/6/15 9/9/16
f 11/11/17 9/9/18 6/6/19 10/10/20
f 12/12/21 10/10/22 6/6/23 5/5/24
f 14/14/25 5/5/26 2/2/27 13/13/28
f 15/15/29 13/13/30 2/2/31 1/1/32
f 16/16/33 13/17/34 15/15/35 17/18/36
f 16/16/37 18/19/38 14/20/39 13/17/40
f 19/21/41 16/16/42 17/18/43 20/22/44
f 16/16/45 19/21/46 21/23/47 18/19/48
f 23/25/49 21/23/50 19/21/51 22/24/52
f 24/26/53 22/24/54 19/21/55 20/22/56
f 25/27/57 26/28/58 24/26/59 20/22/60
f 27/29/61 25/27/62 20/22/63 17/18/64
f 28/30/65 27/29/66 17/18/67 15/15/68
f 28/30/69 15/15/70 1/1/71 29/31/72
f 29/31/73 1/1/74 4/4/75 30/32/76
f 31/33/77 30/32/78 4/4/79 8/8/80
f 32/34/81 8/35/82 7/36/83 33/37/84
f 33/37/85 7/36/86 9/39/87 34/38/88
f 34/38/89 9/39/90 11/41/91 35/40/92
f 36/42/93 37/43/94 32/34/95 33/37/96
f 8/8/97 32/44/98 38/45/99 31/33/100
f 37/46/101 39/47/102 38/45/103 32/44/104
f 36/42/105 33/37/106 34/38/107 40/48/108
f 40/48/109 34/38/110 35/40/111 41/49/112
f 37/43/113 36/42/114 43/51/115 42/50/116
f 44/52/117 43/51/118 36/42/119 40/48/120
f 46/54/121 42/50/122 43/51/123 45/53/124
f 37/46/125 42/55/126 47/56/127 39/47/128
f 47/56/129 42/55/130 46/58/131 48/57/132
f 45/53/133 43/51/134 44/52/135 49/59/136
f 50/60/137 51/61/138 46/58/139 45/62/140
f 51/61/141 52/63/142 48/57/143 46/58/144
f 24/26/145 51/61/146 50/60/147 22/64/148
f 50/60/149 45/62/150 49/66/151 53/65/152
f 22/64/153 50/60/154 53/65/155 23/67/156
f 51/61/157 24/26/158 26/28/159 52/63/160
f 54/68/161 55/69/162 21/23/163 23/25/164
f 54/71/165 23/67/166 53/65/167 56/70/168
f 53/65/169 49/66/170 57/72/171 56/70/172
f 57/74/173 49/59/174 44/52/175 58/73/176
f 58/73/177 44/52/178 40/48/179 41/49/180
f 41/49/181 35/40/182 11/41/183
f 41/49/184 57/74/185 58/73/186
f 55/69/187 59/75/188 18/19/189 21/23/190
f 18/19/191 59/75/192 60/76/193 14/20/194
f 60/77/195 12/12/196 5/5/197 14/14/198
f 60/76/199 59/75/200 12/78/201
f 12/78/202 59/75/203 61/79/204 10/80/205
f 59/75/206 55/69/207 54/68/208
f 56/81/209 61/79/210 59/75/211 54/68/212
f 61/79/213 56/81/214 57/74/215 41/49/216
f 41/49/217 11/41/218 10/80/219 61/79/220
f 31/33/221 38/45/222 39/47/223
f 39/47/224 47/56/225 48/57/226
f 27/29/227 26/28/228 25/27/229
f 27/29/230 28/30/231 29/31/232
f 31/33/233 39/47/234 62/82/235 30/32/236
f 48/57/237 52/63/238 62/82/239 39/47/240
f 27/29/241 62/82/242 52/63/243 26/28/244
f 27/29/245 29/31/246 30/32/247 62/82/248
