# This file uses centimeters as units for non-parametric coordinates.

g default
v -0.302429 -0.158988 -0.400757
v -0.333405 -0.157498 -0.034668
v -0.318466 0.188274 -0.032471
v -0.304733 0.184385 -0.386597
v -0.322891 -0.184344 0.376099
v -0.323059 0.187075 0.373047
v -0.316818 -0.211191 -0.026978
v -0.301849 -0.219670 -0.331055
v -0.300476 -0.224759 0.359619
v -0.301880 -0.176154 0.414307
v -0.277359 -0.219546 0.403442
v -0.294769 0.173342 0.419922
v 0.026016 0.178677 0.419556
v 0.004883 -0.198285 0.420776
v 0.004929 -0.218926 0.402466
v 0.277725 -0.187902 0.412231
v 0.286865 0.176817 0.412842
v 0.268341 -0.221243 0.397949
v 0.326248 0.180250 0.374146
v 0.323181 -0.182649 0.373413
v 0.308868 -0.219877 0.347168
v 0.333405 0.192411 0.011475
v 0.332825 -0.193983 0.022827
v 0.331833 -0.192576 -0.377197
v 0.328445 0.187695 -0.385620
v 0.311478 -0.185131 -0.412842
v 0.286285 0.182856 -0.413452
v 0.263916 -0.215451 -0.403687
v 0.302216 -0.223145 -0.378540
v -0.003220 -0.191832 -0.420776
v -0.016830 0.195721 -0.420288
v -0.001358 -0.216361 -0.405518
v -0.265900 -0.151666 -0.413330
v -0.274216 0.190798 -0.406860
v -0.231308 -0.220829 -0.374756
v -0.271103 0.226082 0.376099
v 0.032883 0.224882 0.373047
v -0.300140 0.228937 0.348877
v -0.300308 0.229599 -0.035522
v -0.308914 0.230343 -0.357666
v -0.265656 0.227571 -0.390503
v -0.016464 0.224924 -0.394409
v 0.284882 0.225958 -0.394531
v 0.318024 0.217644 -0.370850
v 0.318970 0.229929 0.011353
v 0.306808 0.218098 0.330200
v 0.245178 0.221945 0.384033
v 0.308548 -0.224717 0.016968
v 0.010757 -0.231171 0.039917
v 0.019974 0.231171 -0.000854
vt 0.769900 0.600800
vt 0.735200 0.600900
vt 0.734500 0.568200
vt 0.768200 0.568300
vt 0.696400 0.604300
vt 0.696000 0.569200
vt 0.734500 0.606100
vt 0.763400 0.606700
vt 0.697900 0.608700
vt 0.657100 0.564400
vt 0.656100 0.568200
vt 0.651300 0.567300
vt 0.652800 0.562600
vt 0.689800 0.563300
vt 0.692300 0.567600
vt 0.690000 0.533300
vt 0.654400 0.535500
vt 0.651900 0.535500
vt 0.655700 0.509700
vt 0.689900 0.508900
vt 0.652300 0.510100
vt 0.691400 0.504200
vt 0.656200 0.504100
vt 0.651500 0.503800
vt 0.734100 0.705000
vt 0.699600 0.705000
vt 0.698500 0.670500
vt 0.731600 0.668600
vt 0.769400 0.667200
vt 0.771500 0.702800
vt 0.773100 0.667000
vt 0.776100 0.702500
vt 0.772600 0.660600
vt 0.769500 0.663600
vt 0.808100 0.535500
vt 0.771500 0.536300
vt 0.772700 0.507700
vt 0.807700 0.505700
vt 0.810700 0.510200
vt 0.810800 0.535400
vt 0.803800 0.560300
vt 0.804500 0.563900
vt 0.771500 0.564200
vt 0.771600 0.560700
vt 0.811400 0.557500
vt 0.813200 0.565200
vt 0.695900 0.561700
vt 0.695900 0.532700
vt 0.698100 0.564800
vt 0.734800 0.563800
vt 0.765600 0.564200
vt 0.768100 0.559800
vt 0.768100 0.536300
vt 0.768000 0.507800
vt 0.774800 0.706900
vt 0.770700 0.705900
vt 0.734300 0.708800
vt 0.703900 0.709000
vt 0.694500 0.512500
vt 0.698400 0.505900
vt 0.729500 0.505000
vt 0.765700 0.504600
vt 0.771300 0.634900
vt 0.767700 0.613200
vt 0.694700 0.637800
vt 0.693800 0.611000
vt 0.700900 0.666500
vt 0.732100 0.665200
vt 0.695900 0.662700
vt 0.729100 0.637200
vt 0.731100 0.533400
vn -0.997875 0.019768 -0.062092
vn -0.997875 0.019768 -0.062092
vn -0.997875 0.019768 -0.062092
vn -0.997875 0.019768 -0.062092
vn -0.999756 0.020599 0.007959
vn -0.999756 0.020599 0.007959
vn -0.999756 0.020599 0.007959
vn -0.999756 0.020599 0.007959
vn -0.979569 -0.190543 -0.064321
vn -0.979569 -0.190543 -0.064321
vn -0.979569 -0.190543 -0.064321
vn -0.979569 -0.190543 -0.064321
vn -0.923359 -0.383760 0.011648
vn -0.923359 -0.383760 0.011648
vn -0.923359 -0.383760 0.011648
vn -0.923359 -0.383760 0.011648
vn -0.699148 -0.543228 0.464861
vn -0.699148 -0.543228 0.464861
vn -0.699148 -0.543228 0.464861
vn -0.699148 -0.543228 0.464861
vn -0.865035 0.006547 0.501669
vn -0.865035 0.006547 0.501669
vn -0.865035 0.006547 0.501669
vn -0.865035 0.006547 0.501669
vn -0.009877 -0.005665 0.999935
vn -0.009877 -0.005665 0.999935
vn -0.009877 -0.005665 0.999935
vn -0.009877 -0.005665 0.999935
vn -0.023864 -0.422061 0.906253
vn -0.023864 -0.422061 0.906253
vn -0.023864 -0.422061 0.906253
vn -0.023864 -0.422061 0.906253
vn 0.028585 -0.000344 0.999591
vn 0.028585 -0.000344 0.999591
vn 0.028585 -0.000344 0.999591
vn 0.028585 -0.000344 0.999591
vn 0.028615 -0.520280 0.853516
vn 0.028615 -0.520281 0.853516
vn 0.028615 -0.520280 0.853516
vn 0.028615 -0.520280 0.853516
vn 0.675175 -0.012688 0.737549
vn 0.675175 -0.012688 0.737549
vn 0.675175 -0.012688 0.737549
vn 0.675175 -0.012688 0.737549
vn 0.628930 -0.535103 0.564014
vn 0.628930 -0.535103 0.564014
vn 0.628930 -0.535103 0.564014
vn 0.628930 -0.535103 0.564014
vn 0.999713 -0.004532 0.023542
vn 0.999713 -0.004532 0.023542
vn 0.999713 -0.004532 0.023542
vn 0.999713 -0.004532 0.023542
vn 0.999966 0.003469 -0.007480
vn 0.999966 0.003469 -0.007480
vn 0.999966 0.003469 -0.007480
vn 0.999966 0.003469 -0.007480
vn 0.712741 0.018758 -0.701177
vn 0.712741 0.018758 -0.701177
vn 0.712741 0.018758 -0.701177
vn 0.712741 0.018758 -0.701177
vn 0.455701 -0.654958 -0.602800
vn 0.455701 -0.654958 -0.602800
vn 0.455701 -0.654958 -0.602800
vn 0.455701 -0.654958 -0.602800
vn 0.023912 0.001067 -0.999714
vn 0.023912 0.001067 -0.999714
vn 0.023912 0.001067 -0.999714
vn 0.023912 0.001067 -0.999714
vn 0.020793 -0.420967 -0.906838
vn 0.020793 -0.420967 -0.906838
vn 0.020793 -0.420967 -0.906838
vn 0.020793 -0.420967 -0.906838
vn -0.443069 0.020099 -0.896262
vn -0.443069 0.020099 -0.896262
vn -0.443069 0.020099 -0.896262
vn -0.443069 0.020099 -0.896262
vn -0.321067 -0.656315 -0.682764
vn -0.321067 -0.656315 -0.682764
vn -0.321067 -0.656315 -0.682764
vn -0.321067 -0.656315 -0.682764
vn -0.103576 -0.525502 -0.844464
vn -0.103576 -0.525502 -0.844464
vn -0.103576 -0.525502 -0.844464
vn -0.103576 -0.525502 -0.844464
vn -0.039540 0.008336 -0.999183
vn -0.039540 0.008336 -0.999183
vn -0.039540 0.008336 -0.999183
vn -0.039540 0.008336 -0.999183
vn -0.000423 0.674301 0.738456
vn -0.000423 0.674301 0.738456
vn -0.000423 0.674301 0.738456
vn -0.000423 0.674301 0.738456
vn -0.521920 0.652164 0.549801
vn -0.521920 0.652164 0.549801
vn -0.521920 0.652164 0.549801
vn -0.521920 0.652164 0.549802
vn -0.897155 0.441699 -0.003985
vn -0.897155 0.441699 -0.003985
vn -0.897155 0.441699 -0.003985
vn -0.897155 0.441699 -0.003985
vn -0.987002 0.160495 -0.008229
vn -0.987002 0.160495 -0.008229
vn -0.987002 0.160495 -0.008229
vn -0.987002 0.160495 -0.008229
vn -0.542439 0.425304 -0.724483
vn -0.542439 0.425304 -0.724483
vn -0.542439 0.425304 -0.724483
vn -0.542439 0.425304 -0.724483
vn -0.031173 0.541879 -0.839878
vn -0.031173 0.541879 -0.839878
vn -0.031173 0.541879 -0.839878
vn -0.031173 0.541879 -0.839878
vn 0.019750 0.526789 -0.849766
vn 0.019750 0.526789 -0.849766
vn 0.019750 0.526789 -0.849766
vn 0.019750 0.526789 -0.849766
vn 0.524334 0.425146 -0.737784
vn 0.524334 0.425146 -0.737784
vn 0.524334 0.425146 -0.737784
vn 0.524334 0.425146 -0.737784
vn 0.937200 0.348483 -0.014705
vn 0.937200 0.348483 -0.014705
vn 0.937200 0.348483 -0.014705
vn 0.937200 0.348483 -0.014705
vn 0.902235 0.429321 0.040688
vn 0.902235 0.429321 0.040688
vn 0.902235 0.429321 0.040688
vn 0.902235 0.429320 0.040688
vn 0.446221 0.752898 0.483767
vn 0.446222 0.752898 0.483767
vn 0.446222 0.752898 0.483767
vn 0.446222 0.752898 0.483767
vn -0.000518 0.636101 0.771606
vn -0.000518 0.636101 0.771606
vn -0.000518 0.636101 0.771606
vn -0.000518 0.636101 0.771606
vn 0.097554 0.994401 0.040619
vn 0.097554 0.994401 0.040619
vn 0.097554 0.994401 0.040619
vn 0.264411 0.963891 -0.031637
vn 0.264411 0.963891 -0.031637
vn 0.264411 0.963891 -0.031637
vn 0.005342 -0.953920 -0.300014
vn 0.005342 -0.953920 -0.300014
vn 0.005342 -0.953920 -0.300014
vn 0.029213 -0.996861 0.073586
vn 0.029213 -0.996861 0.073586
vn 0.029213 -0.996861 0.073586
vn 0.002585 -0.993155 0.116773
vn 0.002585 -0.993155 0.116773
vn 0.002585 -0.993155 0.116773
vn 0.864490 -0.502088 0.023768
vn 0.864490 -0.502088 0.023768
vn 0.864490 -0.502088 0.023768
vn 0.864490 -0.502088 0.023768
vn 0.751547 -0.659612 -0.009389
vn 0.751547 -0.659612 -0.009389
vn 0.751547 -0.659612 -0.009389
vn 0.751547 -0.659612 -0.009389
vn -0.009378 -0.999366 -0.034360
vn -0.009378 -0.999366 -0.034360
vn -0.009378 -0.999366 -0.034360
vn 0.012360 -0.999617 0.024750
vn 0.012360 -0.999617 0.024750
vn 0.012360 -0.999617 0.024750
vn 0.012360 -0.999617 0.024750
vn -0.022092 -0.999755 -0.001456
vn -0.022092 -0.999755 -0.001456
vn -0.022092 -0.999755 -0.001456
vn -0.022092 -0.999755 -0.001456
vn -0.000420 -0.999810 -0.019467
vn -0.000420 -0.999810 -0.019467
vn -0.000420 -0.999810 -0.019467
vn -0.000420 -0.999810 -0.019467
vn -0.026635 -0.999609 -0.008544
vn -0.026635 -0.999609 -0.008544
vn -0.026635 -0.999609 -0.008544
vn -0.026635 -0.999609 -0.008544
vn 0.064376 0.997926 0.000585
vn 0.064376 0.997926 0.000585
vn 0.064376 0.997926 0.000585
vn 0.096307 0.995350 0.001672
vn 0.096307 0.995350 0.001672
vn 0.096307 0.995350 0.001672
vn 0.007278 0.999779 0.019707
vn 0.007278 0.999779 0.019707
vn 0.007278 0.999779 0.019707
vn 0.007278 0.999779 0.019707
vn 0.000605 0.999918 -0.012833
vn 0.000605 0.999918 -0.012833
vn 0.000605 0.999918 -0.012833
vn 0.000605 0.999918 -0.012833
vn 0.002486 0.999936 -0.011059
vn 0.002486 0.999936 -0.011059
vn 0.002486 0.999936 -0.011059
vn 0.002486 0.999936 -0.011059
vn -0.001231 0.999921 0.012548
vn -0.001231 0.999921 0.012548
vn -0.001231 0.999921 0.012548
vn -0.001231 0.999921 0.012548
s off
g block_02 group8
f 2/2/1 3/3/2 4/4/3 1/1/4
f 6/6/5 3/3/6 2/2/7 5/5/8
f 2/2/9 1/1/10 8/8/11 7/7/12
f 2/2/13 7/7/14 9/9/15 5/5/16
f 5/11/17 9/12/18 11/13/19 10/10/20
f 5/11/21 10/10/22 12/14/23 6/15/24
f 12/14/25 10/10/26 14/17/27 13/16/28
f 14/17/29 10/10/30 11/13/31 15/18/32
f 16/19/33 17/20/34 13/16/35 14/17/36
f 18/21/37 16/19/38 14/17/39 15/18/40
f 17/20/41 16/19/42 20/23/43 19/22/44
f 20/23/45 16/19/46 18/21/47 21/24/48
f 19/26/49 20/27/50 23/28/51 22/25/52
f 24/29/53 25/30/54 22/25/55 23/28/56
f 26/31/57 27/32/58 25/30/59 24/29/60
f 26/31/61 24/29/62 29/34/63 28/33/64
f 30/35/65 31/36/66 27/37/67 26/38/68
f 28/39/69 32/40/70 30/35/71 26/38/72
f 33/41/73 1/42/74 4/43/75 34/44/76
f 1/42/77 33/41/78 35/45/79 8/46/80
f 30/35/81 32/40/82 35/45/83 33/41/84
f 33/41/85 34/44/86 31/36/87 30/35/88
f 36/47/89 12/14/90 13/16/91 37/48/92
f 36/47/93 38/49/94 6/15/95 12/14/96
f 38/49/97 39/50/98 3/3/99 6/6/100
f 3/3/101 39/50/102 40/51/103 4/4/104
f 4/43/105 40/51/106 41/52/107 34/44/108
f 41/52/109 42/53/110 31/36/111 34/44/112
f 43/54/113 27/37/114 31/36/115 42/53/116
f 43/55/117 44/56/118 25/30/119 27/32/120
f 44/56/121 45/57/122 22/25/123 25/30/124
f 46/58/125 19/26/126 22/25/127 45/57/128
f 47/59/129 17/20/130 19/22/131 46/60/132
f 13/16/133 17/20/134 47/59/135 37/48/136
f 47/59/137 46/60/138 45/61/139
f 45/61/140 44/62/141 43/54/142
f 32/63/143 28/33/144 29/34/145
f 35/64/146 32/63/147 8/8/148
f 15/65/149 11/66/150 9/9/151
f 21/67/152 48/68/153 23/28/154 20/27/155
f 48/68/156 29/34/157 24/29/158 23/28/159
f 21/67/160 18/69/161 15/65/162
f 21/67/163 15/65/164 49/70/165 48/68/166
f 49/70/167 15/65/168 9/9/169 7/7/170
f 49/70/171 32/63/172 29/34/173 48/68/174
f 49/70/175 7/7/176 8/8/177 32/63/178
f 41/52/179 40/51/180 39/50/181
f 39/50/182 38/49/183 36/47/184
f 47/59/185 45/61/186 50/71/187 37/48/188
f 50/71/189 45/61/190 43/54/191 42/53/192
f 42/53/193 41/52/194 39/50/195 50/71/196
f 36/47/197 37/48/198 50/71/199 39/50/200
