# This file uses centimeters as units for non-parametric coordinates.

g default
v -0.642502 0.080570 -0.274963
v -0.638504 0.089025 0.273193
v -0.649429 1.086399 0.246399
v -0.653076 1.110947 -0.239685
v -0.272186 1.108597 0.638123
v -0.222397 0.060133 0.656433
v 0.313171 0.058020 0.621887
v 0.282761 1.148060 0.647583
v 0.635452 1.125156 0.272827
v 0.638031 0.077633 0.261902
v 0.656128 1.120106 -0.254028
v 0.652603 0.079514 -0.273987
v 0.276062 0.078455 -0.653259
v 0.262787 1.129150 -0.658752
v -0.223557 1.087574 -0.658325
v -0.250931 0.079161 -0.657593
v -0.627121 -1.173780 0.293518
v -0.236725 -1.133613 0.658752
v -0.656128 -1.134552 -0.243469
v -0.281815 -1.144536 -0.655457
v 0.263611 -1.117053 -0.642456
v 0.652374 -1.135257 -0.265808
v 0.621002 -1.121516 0.296936
v 0.298264 -1.129737 0.620117
v -0.603867 1.216766 0.194946
v -0.251755 1.232269 0.586304
v -0.241180 1.232857 -0.614014
v 0.252579 1.232624 -0.637146
v 0.604919 1.241196 -0.226318
v 0.593643 1.252235 0.253479
v 0.248459 1.248478 0.611084
v -0.613373 1.226631 -0.234192
v -0.627472 -1.240021 -0.198364
v -0.568863 -1.256816 0.289856
v -0.285583 -1.212186 -0.643127
v 0.248459 -1.201851 -0.630127
v 0.617722 -1.231800 -0.260742
v 0.589188 -1.216649 0.274597
v 0.310242 -1.229686 0.576111
v -0.183746 -1.236616 0.610962
v 0.010040 -1.265155 0.056519
v 0.082977 1.265156 0.054749
vt 0.489500 0.929900
vt 0.551400 0.926800
vt 0.551600 0.887850
vt 0.493000 0.890400
vt 0.609000 0.891700
vt 0.612300 0.932300
vt 0.591300 0.935100
vt 0.589200 0.893100
vt 0.571200 0.895100
vt 0.572400 0.935700
vt 0.552800 0.895800
vt 0.551600 0.935800
vt 0.530900 0.934700
vt 0.532600 0.894000
vt 0.515100 0.894000
vt 0.510500 0.932700
vt 0.639700 0.976400
vt 0.618300 0.978100
vt 0.482400 0.976600
vt 0.461000 0.974900
vt 0.505100 0.980000
vt 0.528300 0.981100
vt 0.551700 0.982900
vt 0.576100 0.982000
vt 0.596000 0.980800
vt 0.627300 0.880500
vt 0.608100 0.886300
vt 0.514100 0.888200
vt 0.532700 0.890000
vt 0.553100 0.890900
vt 0.570900 0.890000
vt 0.589500 0.889000
vt 0.493800 0.886500
vt 0.477400 0.883200
vt 0.422000 0.762100
vt 0.413900 0.779700
vt 0.410700 0.779900
vt 0.419500 0.759400
vt 0.441700 0.753600
vt 0.441200 0.752500
vt 0.460500 0.762900
vt 0.461500 0.760400
vt 0.466800 0.783200
vt 0.469500 0.781900
vt 0.456000 0.803000
vt 0.459200 0.804500
vt 0.439400 0.810700
vt 0.439300 0.807900
vt 0.417700 0.802100
vt 0.420600 0.799200
vt 0.439300 0.784000
vt 0.385800 0.789200
vt 0.356600 0.786600
vt 0.364700 0.771900
vt 0.362600 0.806400
vt 0.379200 0.816100
vt 0.398800 0.808300
vt 0.407000 0.791600
vt 0.401600 0.773000
vt 0.383900 0.764800
vn -0.999917 -0.010632 0.007226
vn -0.999917 -0.010632 0.007226
vn -0.999917 -0.010632 0.007226
vn -0.999917 -0.010632 0.007226
vn 0.023086 -0.002587 0.999730
vn 0.023086 -0.002587 0.999730
vn 0.023086 -0.002587 0.999730
vn 0.023086 -0.002587 0.999730
vn 0.735138 -0.000269 0.677918
vn 0.735138 -0.000269 0.677918
vn 0.735138 -0.000269 0.677918
vn 0.735138 -0.000269 0.677918
vn 0.999450 -0.000943 0.033151
vn 0.999450 -0.000943 0.033151
vn 0.999450 -0.000943 0.033151
vn 0.999450 -0.000943 0.033151
vn 0.713518 0.008173 -0.700589
vn 0.713518 0.008173 -0.700589
vn 0.713518 0.008173 -0.700589
vn 0.713518 0.008173 -0.700589
vn 0.003978 -0.003051 -0.999987
vn 0.003978 -0.003051 -0.999987
vn 0.003978 -0.003051 -0.999987
vn 0.003978 -0.003051 -0.999987
vn -0.698027 0.017881 -0.715848
vn -0.698027 0.017881 -0.715848
vn -0.698027 0.017881 -0.715848
vn -0.698027 0.017881 -0.715848
vn -0.680283 0.007571 0.732911
vn -0.680283 0.007571 0.732911
vn -0.680283 0.007571 0.732911
vn -0.680283 0.007571 0.732911
vn -0.999535 0.001541 0.030445
vn -0.999535 0.001541 0.030445
vn -0.999535 0.001541 0.030445
vn -0.999535 0.001541 0.030445
vn -0.719974 0.003570 -0.693992
vn -0.719974 0.003570 -0.693992
vn -0.719974 0.003570 -0.693992
vn -0.719974 0.003570 -0.693992
vn 0.016302 -0.005640 -0.999851
vn 0.016302 -0.005640 -0.999851
vn 0.016302 -0.005640 -0.999851
vn 0.016302 -0.005640 -0.999851
vn 0.702596 -0.009300 -0.711529
vn 0.702596 -0.009300 -0.711529
vn 0.702596 -0.009300 -0.711529
vn 0.702596 -0.009300 -0.711529
vn 0.999103 -0.006394 0.041851
vn 0.999103 -0.006394 0.041851
vn 0.999103 -0.006394 0.041851
vn 0.999103 -0.006394 0.041851
vn 0.725749 -0.000123 0.687959
vn 0.725749 -0.000123 0.687959
vn 0.725749 -0.000123 0.687959
vn 0.725749 -0.000123 0.687959
vn 0.068200 -0.000607 0.997671
vn 0.068200 -0.000607 0.997672
vn 0.068200 -0.000607 0.997672
vn 0.068200 -0.000607 0.997671
vn -0.673541 0.421738 0.607026
vn -0.673541 0.421738 0.607026
vn -0.673541 0.421738 0.607026
vn -0.673541 0.421738 0.607026
vn -0.033894 0.252457 -0.967014
vn -0.033894 0.252457 -0.967014
vn -0.033894 0.252457 -0.967014
vn -0.033894 0.252457 -0.967014
vn 0.696668 0.330380 -0.636791
vn 0.696668 0.330380 -0.636791
vn 0.696668 0.330380 -0.636791
vn 0.696668 0.330380 -0.636791
vn 0.936380 0.350157 0.024124
vn 0.936380 0.350157 0.024124
vn 0.936380 0.350157 0.024124
vn 0.936380 0.350157 0.024124
vn 0.674325 0.380898 0.632615
vn 0.674325 0.380898 0.632615
vn 0.674325 0.380898 0.632615
vn 0.674325 0.380898 0.632615
vn -0.690545 0.191534 -0.697469
vn -0.690545 0.191534 -0.697469
vn -0.690545 0.191534 -0.697469
vn -0.690545 0.191534 -0.697469
vn -0.943040 0.331659 0.026023
vn -0.943040 0.331659 0.026023
vn -0.943040 0.331659 0.026023
vn -0.943040 0.331659 0.026023
vn -0.911308 -0.407956 0.055589
vn -0.911308 -0.407956 0.055589
vn -0.911308 -0.407956 0.055589
vn -0.911308 -0.407956 0.055589
vn -0.726728 -0.308150 -0.613930
vn -0.726728 -0.308150 -0.613930
vn -0.726728 -0.308150 -0.613930
vn -0.726728 -0.308150 -0.613930
vn 0.029470 -0.163167 -0.986158
vn 0.029470 -0.163167 -0.986158
vn 0.029470 -0.163167 -0.986158
vn 0.029470 -0.163167 -0.986158
vn 0.670808 -0.251172 -0.697804
vn 0.670808 -0.251172 -0.697804
vn 0.670808 -0.251172 -0.697804
vn 0.670808 -0.251172 -0.697804
vn 0.941410 -0.331867 0.060091
vn 0.941410 -0.331867 0.060091
vn 0.941410 -0.331867 0.060091
vn 0.941410 -0.331867 0.060091
vn 0.693352 -0.294213 0.657801
vn 0.693352 -0.294213 0.657801
vn 0.693352 -0.294213 0.657801
vn 0.693352 -0.294213 0.657801
vn 0.069619 -0.392532 0.917100
vn 0.069619 -0.392532 0.917100
vn 0.069619 -0.392532 0.917100
vn 0.069619 -0.392532 0.917100
vn -0.547203 -0.510610 0.663209
vn -0.547203 -0.510610 0.663209
vn -0.547203 -0.510610 0.663209
vn -0.547203 -0.510610 0.663209
vn -0.018074 -0.998418 -0.053248
vn -0.018074 -0.998418 -0.053248
vn -0.018074 -0.998418 -0.053248
vn -0.018074 -0.998418 -0.053248
vn 0.012639 -0.998362 0.055808
vn 0.012639 -0.998362 0.055808
vn 0.012639 -0.998362 0.055808
vn 0.012639 -0.998362 0.055808
vn 0.072517 -0.996941 0.029163
vn 0.072517 -0.996941 0.029163
vn 0.072517 -0.996941 0.029163
vn 0.072517 -0.996941 0.029163
vn 0.015037 -0.996128 -0.086616
vn 0.015037 -0.996128 -0.086616
vn 0.015037 -0.996128 -0.086616
vn 0.015037 -0.996128 -0.086616
vn -0.065765 0.997590 0.022130
vn -0.065765 0.997590 0.022130
vn -0.065765 0.997590 0.022130
vn -0.065765 0.997590 0.022130
vn -0.023962 0.999041 -0.036636
vn -0.023962 0.999041 -0.036636
vn -0.023962 0.999041 -0.036636
vn -0.023962 0.999041 -0.036636
vn 0.028201 0.999064 -0.032799
vn 0.028201 0.999064 -0.032799
vn 0.028201 0.999064 -0.032799
vn 0.028201 0.999064 -0.032799
vn -0.010570 0.999396 0.033104
vn -0.010570 0.999396 0.033104
vn -0.010570 0.999396 0.033104
vn -0.010570 0.999396 0.033104
vn -0.049370 0.363574 0.930256
vn -0.049370 0.363574 0.930256
vn -0.049370 0.363574 0.930256
vn -0.049370 0.363574 0.930256
vn -0.698781 -0.004967 0.715318
vn -0.698781 -0.004967 0.715318
vn -0.698781 -0.004967 0.715318
vn -0.698781 -0.004967 0.715318
s off
g column_06 group8
f 1/1/1 2/2/2 3/3/3 4/4/4
f 8/8/5 5/5/6 6/6/7 7/7/8
f 9/9/9 8/8/10 7/7/11 10/10/12
f 11/11/13 9/9/14 10/10/15 12/12/16
f 14/14/17 11/11/18 12/12/19 13/13/20
f 15/15/21 14/14/22 13/13/23 16/16/24
f 15/15/25 16/16/26 1/1/27 4/4/28
f 18/18/29 6/6/30 2/2/31 17/17/32
f 19/19/33 17/20/34 2/2/35 1/1/36
f 20/21/37 19/19/38 1/1/39 16/16/40
f 21/22/41 20/21/42 16/16/43 13/13/44
f 21/22/45 13/13/46 12/12/47 22/23/48
f 22/23/49 12/12/50 10/10/51 23/24/52
f 23/24/53 10/10/54 7/7/55 24/25/56
f 24/25/57 7/7/58 6/6/59 18/18/60
f 3/3/61 5/5/62 26/27/63 25/26/64
f 28/29/65 14/14/66 15/15/67 27/28/68
f 14/14/69 28/29/70 29/30/71 11/11/72
f 29/30/73 30/31/74 9/9/75 11/11/76
f 30/31/77 31/32/78 8/8/79 9/9/80
f 27/28/81 15/15/82 4/4/83 32/33/84
f 4/4/85 3/3/86 25/34/87 32/33/88
f 33/35/89 34/36/90 17/37/91 19/38/92
f 35/39/93 33/35/94 19/38/95 20/40/96
f 36/41/97 35/39/98 20/40/99 21/42/100
f 37/43/101 36/41/102 21/42/103 22/44/104
f 38/45/105 37/43/106 22/44/107 23/46/108
f 23/46/109 24/47/110 39/48/111 38/45/112
f 24/47/113 18/49/114 40/50/115 39/48/116
f 18/49/117 17/37/118 34/36/119 40/50/120
f 33/35/121 35/39/122 41/51/123 34/36/124
f 40/50/125 34/36/126 41/51/127 39/48/128
f 38/45/129 39/48/130 41/51/131 37/43/132
f 36/41/133 37/43/134 41/51/135 35/39/136
f 42/52/137 32/53/138 25/54/139 26/60/140
f 27/55/141 32/53/142 42/52/143 28/56/144
f 29/57/145 28/56/146 42/52/147 30/58/148
f 31/59/149 30/58/150 42/52/151 26/60/152
f 31/32/153 26/27/154 5/5/155 8/8/156
f 3/3/157 2/2/158 6/6/159 5/5/160
